<mxfile host="app.diagrams.net" agent="Mozilla/5.0 (Windows NT 10.0; Win64; x64) AppleWebKit/537.36 (KHTML, like Gecko) Chrome/131.0.0.0 Safari/537.36" version="25.0.3">
  <diagram name="PÃ¡gina-1" id="Zoaj4Oq8jPBha-hT2iEr">
    <mxGraphModel dx="1114" dy="600" grid="1" gridSize="10" guides="1" tooltips="1" connect="1" arrows="1" fold="1" page="1" pageScale="1" pageWidth="827" pageHeight="1169" math="0" shadow="0">
      <root>
        <mxCell id="0" />
        <mxCell id="1" parent="0" />
        <mxCell id="mI5TofcwSd7M8Bvohb0A-1" value="imc" style="swimlane;fontStyle=1;align=center;verticalAlign=top;childLayout=stackLayout;horizontal=1;startSize=26;horizontalStack=0;resizeParent=1;resizeParentMax=0;resizeLast=0;collapsible=1;marginBottom=0;whiteSpace=wrap;html=1;" vertex="1" parent="1">
          <mxGeometry x="120" y="160" width="264" height="138" as="geometry" />
        </mxCell>
        <mxCell id="mI5TofcwSd7M8Bvohb0A-2" value="+ peso: double&amp;nbsp;" style="text;strokeColor=none;fillColor=none;align=left;verticalAlign=top;spacingLeft=4;spacingRight=4;overflow=hidden;rotatable=0;points=[[0,0.5],[1,0.5]];portConstraint=eastwest;whiteSpace=wrap;html=1;" vertex="1" parent="mI5TofcwSd7M8Bvohb0A-1">
          <mxGeometry y="26" width="264" height="26" as="geometry" />
        </mxCell>
        <mxCell id="mI5TofcwSd7M8Bvohb0A-5" value="+ altura: double&amp;nbsp;" style="text;strokeColor=none;fillColor=none;align=left;verticalAlign=top;spacingLeft=4;spacingRight=4;overflow=hidden;rotatable=0;points=[[0,0.5],[1,0.5]];portConstraint=eastwest;whiteSpace=wrap;html=1;" vertex="1" parent="mI5TofcwSd7M8Bvohb0A-1">
          <mxGeometry y="52" width="264" height="26" as="geometry" />
        </mxCell>
        <mxCell id="mI5TofcwSd7M8Bvohb0A-3" value="" style="line;strokeWidth=1;fillColor=none;align=left;verticalAlign=middle;spacingTop=-1;spacingLeft=3;spacingRight=3;rotatable=0;labelPosition=right;points=[];portConstraint=eastwest;strokeColor=inherit;" vertex="1" parent="mI5TofcwSd7M8Bvohb0A-1">
          <mxGeometry y="78" width="264" height="8" as="geometry" />
        </mxCell>
        <mxCell id="mI5TofcwSd7M8Bvohb0A-4" value="calcularimc (peso,altura): double" style="text;strokeColor=none;fillColor=none;align=left;verticalAlign=top;spacingLeft=4;spacingRight=4;overflow=hidden;rotatable=0;points=[[0,0.5],[1,0.5]];portConstraint=eastwest;whiteSpace=wrap;html=1;" vertex="1" parent="mI5TofcwSd7M8Bvohb0A-1">
          <mxGeometry y="86" width="264" height="26" as="geometry" />
        </mxCell>
        <mxCell id="mI5TofcwSd7M8Bvohb0A-12" value="classificar(double: imc): String" style="text;strokeColor=none;fillColor=none;align=left;verticalAlign=top;spacingLeft=4;spacingRight=4;overflow=hidden;rotatable=0;points=[[0,0.5],[1,0.5]];portConstraint=eastwest;whiteSpace=wrap;html=1;" vertex="1" parent="mI5TofcwSd7M8Bvohb0A-1">
          <mxGeometry y="112" width="264" height="26" as="geometry" />
        </mxCell>
      </root>
    </mxGraphModel>
  </diagram>
</mxfile>
